<svg xmlns="http://www.w3.org/2000/svg" viewBox="0 0 128 128">
  <path d="M24 121c3-22 15-38 35-44h10c20 6 32 22 35 44H24z" fill="#3a2c1e"/>
  <path d="M34 121c2-16 9-29 22-36h16c13 7 20 20 22 36H34z" fill="#5a4632"/>
  <path d="M45 58c0-20 8-32 20-32 13 0 22 12 22 33 0 20-10 34-23 34S45 78 45 58z" fill="#b88d6a"/>
  <path d="M47 55c3-15 9-24 19-24 7 0 13 5 17 14-9-4-22-2-36 10z" fill="#c9a86a" opacity=".25"/>
  <path d="M43 62c-4 1-6 5-5 10 1 5 4 9 8 9l1-16c-1-2-2-3-4-3z" fill="#9a7054"/>
  <path d="M88 62c4 1 6 5 5 10-1 5-4 9-8 9l-1-16c1-2 2-3 4-3z" fill="#7e5a45"/>
  <path d="M41 47c4-18 14-29 28-28 16 1 26 15 25 33-11-8-25-14-53-5z" fill="#2b2118"/>
  <path d="M47 44c8-12 23-15 36-4-11-3-23-2-36 4z" fill="#5a4632"/>
  <path d="M43 51c14-8 33-11 48 4-2-10-8-19-18-23-14-5-27 2-30 19z" fill="#3a2c1e"/>
  <path d="M51 61c5-4 12-4 17 0-5 2-11 2-17 0z" fill="#3a2c1e"/>
  <circle cx="59" cy="65" r="2.5" fill="#1f1812"/>
  <circle cx="59.8" cy="64.2" r=".8" fill="#FFC842"/>
  <path d="M69 57h16c3 0 5 2 5 5v8c0 5-4 9-10 9h-2c-6 0-10-4-10-9v-8c0-3 1-5 1-5z" fill="#2a2118"/>
  <path d="M71 60h16v8c0 4-3 7-8 7s-8-3-8-7v-8z" fill="#1a1510"/>
  <path d="M67 61c2-3 5-5 9-5" fill="none" stroke="#1f1812" stroke-width="4" stroke-linecap="round"/>
  <path d="M75 54c4-2 9-1 13 2" fill="none" stroke="#3a2c1e" stroke-width="4" stroke-linecap="round"/>
  <path d="M54 55c5-3 11-4 16-1" fill="none" stroke="#3a2c1e" stroke-width="4" stroke-linecap="round"/>
  <path d="M63 70c1 2 3 3 6 2" fill="none" stroke="#6f4f3e" stroke-width="2.5" stroke-linecap="round"/>
  <path d="M54 76c6 4 14 5 22 2" fill="none" stroke="#5a4632" stroke-width="3" stroke-linecap="round"/>
  <path d="M52 82c8 8 20 9 29 2-4 11-9 16-17 16s-11-7-12-18z" fill="#3a2c1e"/>
  <path d="M53 83c5 4 11 5 19 3-1 3-4 5-8 5s-8-2-11-8z" fill="#bfc0b6"/>
  <path d="M44 121c1-15 5-27 12-35h18c7 8 11 20 12 35H44z" fill="#2f3a2a"/>
  <path d="M22 121c4-19 16-33 34-42l11 18c-10 5-17 13-20 24H22z" fill="#5a4632"/>
  <path d="M106 121c-4-19-16-33-34-42L61 97c10 5 17 13 20 24h25z" fill="#3a2c1e"/>
  <path d="M42 92l14-9 10 16-17 9c-4-4-6-9-7-16z" fill="#6b4a32"/>
  <path d="M83 86l13 13-9 9-17-18 13-4z" fill="#2b2118"/>
  <path d="M72 91l18 20-7 6-18-20 7-6z" fill="#6b4a32"/>
  <path d="M82 101l8 9-5 5-8-9 5-5z" fill="#FFC842"/>
  <path d="M50 87l28 34H64L40 93c2-3 5-5 10-6z" fill="#4a3323"/>
  <path d="M54 88l10 13 10-13c-6 4-14 4-20 0z" fill="#c9a86a"/>
</svg>
