<svg xmlns="http://www.w3.org/2000/svg" viewBox="0 0 128 128">
  <!-- Captain Vael — Warden-Captain, steel armor + gold trim, steel-calm. -->
  <path d="M18 121c4-24 18-40 38-46h16c20 6 34 22 38 46H18z" fill="#33373d"/>
  <path d="M30 121c3-18 13-31 29-37h12c16 6 26 19 29 37H30z" fill="#4a5159"/>
  <!-- pauldrons -->
  <path d="M18 110c-2-14 6-26 20-30l6 18c-9 3-15 9-18 18l-8-6z" fill="#5b636d"/>
  <path d="M110 110c2-14-6-26-20-30l-6 18c9 3 15 9 18 18l8-6z" fill="#41474f"/>
  <path d="M24 100c2-7 7-12 14-14l3 8c-6 2-10 6-12 12l-5-6z" fill="#8a929c"/>
  <!-- gold gorget trim -->
  <path d="M44 92c6 6 28 6 40 0l-3 9c-12 5-24 5-34 0l-3-9z" fill="#FFC842"/>
  <path d="M46 94c6 4 24 4 36 0l-2 5c-10 4-22 4-32 0l-2-5z" fill="#b8902f"/>
  <!-- neck -->
  <path d="M55 78h18v14c0 4-4 7-9 7s-9-3-9-7V78z" fill="#a8805e"/>
  <!-- face -->
  <path d="M44 56c0-19 8-30 20-30 13 0 21 11 21 31 0 19-9 33-22 33S44 75 44 56z" fill="#b88d6a"/>
  <path d="M46 53c3-15 9-23 18-23 7 0 13 5 17 14-10-5-23-3-35 9z" fill="#c9a86a" opacity=".22"/>
  <!-- ears -->
  <path d="M42 60c-4 1-6 5-5 10 1 5 4 9 8 9l1-16c-1-2-2-3-4-3z" fill="#9a7054"/>
  <path d="M86 60c4 1 6 5 5 10-1 5-4 9-8 9l-1-16c1-2 2-3 4-3z" fill="#7e5a45"/>
  <!-- cropped hair / steel circlet -->
  <path d="M43 50c2-16 11-26 25-25 14 1 23 13 22 30-10-9-22-13-32-9-7 2-12 1-15 4z" fill="#2c2f34"/>
  <path d="M44 47c14-7 31-4 42 6-3-12-12-21-23-21-10 0-17 6-19 15z" fill="#3a3e44"/>
  <path d="M42 48c14-6 33-4 46 7l-2-6c-12-9-30-10-44-1z" fill="#FFC842" opacity=".5"/>
  <!-- brow + eyes (steel-calm, level gaze) -->
  <path d="M50 56c5-3 11-3 16 0" fill="none" stroke="#2c2f34" stroke-width="3.5" stroke-linecap="round"/>
  <path d="M68 56c4-2 9-2 13 1" fill="none" stroke="#2c2f34" stroke-width="3.5" stroke-linecap="round"/>
  <circle cx="58" cy="63" r="2.4" fill="#3a4a55"/>
  <circle cx="58.7" cy="62.2" r=".8" fill="#cfe0ea"/>
  <circle cx="75" cy="63" r="2.4" fill="#3a4a55"/>
  <!-- scar across cheek -->
  <path d="M52 66l-4 12" fill="none" stroke="#9a6a52" stroke-width="2" stroke-linecap="round"/>
  <!-- jaw / set mouth -->
  <path d="M56 76c5 3 11 3 16 0" fill="none" stroke="#7e5a45" stroke-width="3" stroke-linecap="round"/>
</svg>
